<?xml version="1.0" encoding="UTF-8" standalone="no"?>
<svg
   preserveAspectRatio="xMinYMid"
   viewbox="0 0 60 60"
   version="1.1"
   id="svg43"
   sodipodi:docname="icon_udl_exp_mediacion.svg"
   inkscape:version="1.1.2 (0a00cf5339, 2022-02-04)"
   xmlns:inkscape="http://www.inkscape.org/namespaces/inkscape"
   xmlns:sodipodi="http://sodipodi.sourceforge.net/DTD/sodipodi-0.dtd"
   xmlns="http://www.w3.org/2000/svg"
   xmlns:svg="http://www.w3.org/2000/svg"
   xmlns:rdf="http://www.w3.org/1999/02/22-rdf-syntax-ns#"
   xmlns:cc="http://creativecommons.org/ns#"
   xmlns:dc="http://purl.org/dc/elements/1.1/">
  <sodipodi:namedview
     id="namedview45"
     pagecolor="#ffffff"
     bordercolor="#666666"
     borderopacity="1.0"
     inkscape:pageshadow="2"
     inkscape:pageopacity="0.0"
     inkscape:pagecheckerboard="0"
     showgrid="false"
     inkscape:zoom="4.1866667"
     inkscape:cx="29.140127"
     inkscape:cy="5.6130573"
     inkscape:window-width="1920"
     inkscape:window-height="1005"
     inkscape:window-x="0"
     inkscape:window-y="0"
     inkscape:window-maximized="1"
     inkscape:current-layer="svg43" />
  <defs
     id="defs4">
    <style
       id="style2">.cls-1{fill:#0065ab;}.cls-2{fill:none;}.cls-3{fill:#fff;}</style>
  </defs>
  <title
     id="title6">estilos iconos paraeducaand_adultos</title>
  <g
     id="elements">
    <circle
       class="cls-1"
       cx="30"
       cy="30"
       r="30"
       id="circle8"
       style="fill:#333333;fill-opacity:1" />
    <circle
       class="cls-2"
       cx="30.77"
       cy="10.36"
       r="4.1100001"
       id="circle10" />
    <path
       class="cls-2"
       d="M 14.16,30 A 4.11,4.11 0 1 0 10.05,25.89 4.11,4.11 0 0 0 14.16,30 Z"
       id="path12" />
    <path
       class="cls-2"
       d="M 46.86,30 A 4.11,4.11 0 1 0 42.74,25.89 4.12,4.12 0 0 0 46.86,30 Z"
       id="path14" />
    <circle
       class="cls-2"
       cx="30.25"
       cy="42.540001"
       r="4.1100001"
       id="circle16" />
    <path
       class="cls-3"
       d="m 45.11,19.54 0.1,0.23 0.24,-0.07 0.5,-0.11 0.38,-0.06 -0.16,-0.35 a 17.3,17.3 0 0 0 -8,-8.36 l -0.4,-0.2 v 0.45 a 4.52,4.52 0 0 1 -0.06,0.53 v 0.21 l 0.19,0.1 a 16.22,16.22 0 0 1 7.21,7.63 z"
       id="path18" />
    <path
       class="cls-3"
       d="m 40.58,38.67 a 16.2,16.2 0 0 1 -3,1.9 l -0.23,0.11 0.07,0.24 c 0,0.17 0.09,0.33 0.13,0.5 l 0.08,0.38 0.34,-0.17 a 17.33,17.33 0 0 0 3.76,-2.5 l 0.6,-0.53 h -1.67 z"
       id="path20" />
    <path
       class="cls-3"
       d="m 24.35,42.21 v -0.38 c 0,-0.17 0.05,-0.33 0.09,-0.5 l 0.06,-0.24 -0.24,-0.1 A 15.91,15.91 0 0 1 20.39,38.67 L 20.31,38.6 h -1.67 l 0.61,0.53 A 17.25,17.25 0 0 0 24,42.07 Z"
       id="path22" />
    <path
       class="cls-3"
       d="m 15.57,19.7 0.24,0.07 0.1,-0.23 a 16.13,16.13 0 0 1 8.26,-8.09 l 0.2,-0.08 v -0.22 c 0,-0.17 0,-0.35 0,-0.53 v -0.45 l -0.41,0.18 a 17.15,17.15 0 0 0 -9.06,8.83 l -0.16,0.35 0.38,0.06 z"
       id="path24" />
    <path
       class="cls-3"
       d="m 30.77,15.59 a 5.23,5.23 0 1 0 -5.23,-5.23 5.23,5.23 0 0 0 5.23,5.23 z m 0,-9.34 a 4.11,4.11 0 1 1 -4.11,4.11 4.12,4.12 0 0 1 4.11,-4.11 z"
       id="path26" />
    <path
       class="cls-3"
       d="m 39.37,23.12 v -3.81 a 3.55,3.55 0 0 0 -3.54,-3.54 h -9.6 a 3.55,3.55 0 0 0 -3.55,3.54 v 3.81 h 1.12 v -3.81 a 2.43,2.43 0 0 1 2.43,-2.42 h 9.6 a 2.42,2.42 0 0 1 2.42,2.42 v 3.81 z"
       id="path28" />
    <path
       class="cls-3"
       d="M 25,42.54 A 5.23,5.23 0 1 0 30.23,37.31 5.24,5.24 0 0 0 25,42.54 Z m 9.34,0 a 4.11,4.11 0 1 1 -4.11,-4.11 4.12,4.12 0 0 1 4.13,4.11 z"
       id="path30" />
    <path
       class="cls-3"
       d="m 35.42,48 v 0 h -9.71 a 3.54,3.54 0 0 0 -3.54,3.54 v 3.8 h 1.11 v -3.8 a 2.43,2.43 0 0 1 2.43,-2.43 h 9.6 a 2.42,2.42 0 0 1 2.42,2.43 v 3.8 h 1.12 v -3.8 A 3.52,3.52 0 0 0 35.42,48 Z"
       id="path32" />
    <path
       class="cls-3"
       d="m 14.16,31.16 a 5.23,5.23 0 1 0 -5.23,-5.23 5.23,5.23 0 0 0 5.23,5.23 z m 0,-9.34 a 4.11,4.11 0 1 1 -4.11,4.11 4.11,4.11 0 0 1 4.11,-4.11 z"
       id="path34" />
    <path
       class="cls-3"
       d="m 21.65,34.88 v 3.81 h 1.12 v -3.81 a 3.55,3.55 0 0 0 -3.55,-3.54 h -9.6 a 3.55,3.55 0 0 0 -3.54,3.54 v 3.81 H 7.2 v -3.81 a 2.43,2.43 0 0 1 2.42,-2.42 h 9.6 a 2.43,2.43 0 0 1 2.43,2.42 z"
       id="path36" />
    <path
       class="cls-3"
       d="m 41.63,25.93 a 5.23,5.23 0 1 0 5.23,-5.23 5.23,5.23 0 0 0 -5.23,5.23 z m 5.23,-4.11 a 4.11,4.11 0 1 1 -4.12,4.11 4.12,4.12 0 0 1 4.12,-4.11 z"
       id="path38" />
    <path
       class="cls-3"
       d="m 51.92,31.34 h -9.6 a 3.55,3.55 0 0 0 -3.55,3.54 v 3.81 h 1.12 v -3.81 a 2.43,2.43 0 0 1 2.43,-2.42 h 9.6 a 2.43,2.43 0 0 1 2.42,2.42 v 3.81 h 1.12 v -3.81 a 3.55,3.55 0 0 0 -3.54,-3.54 z"
       id="path40" />
  </g>
  <metadata
     id="metadata900">
    <rdf:RDF>
      <cc:Work
         rdf:about="">
        <dc:title>estilos iconos paraeducaand_adultos</dc:title>
      </cc:Work>
    </rdf:RDF>
  </metadata>
</svg>
