<?xml version="1.0" encoding="UTF-8" standalone="no"?>
<svg
   preserveAspectRatio="xMinYMid"
   viewbox="0 0 60 60"
   version="1.1"
   id="svg15"
   sodipodi:docname="icon_udl_rep_reproduccion.svg"
   inkscape:version="1.1.2 (0a00cf5339, 2022-02-04)"
   xmlns:inkscape="http://www.inkscape.org/namespaces/inkscape"
   xmlns:sodipodi="http://sodipodi.sourceforge.net/DTD/sodipodi-0.dtd"
   xmlns="http://www.w3.org/2000/svg"
   xmlns:svg="http://www.w3.org/2000/svg"
   xmlns:rdf="http://www.w3.org/1999/02/22-rdf-syntax-ns#"
   xmlns:cc="http://creativecommons.org/ns#"
   xmlns:dc="http://purl.org/dc/elements/1.1/">
  <sodipodi:namedview
     id="namedview17"
     pagecolor="#ffffff"
     bordercolor="#666666"
     borderopacity="1.0"
     inkscape:pageshadow="2"
     inkscape:pageopacity="0.0"
     inkscape:pagecheckerboard="0"
     showgrid="false"
     inkscape:zoom="4.1866667"
     inkscape:cx="150"
     inkscape:cy="74.880573"
     inkscape:window-width="1920"
     inkscape:window-height="1005"
     inkscape:window-x="0"
     inkscape:window-y="0"
     inkscape:window-maximized="1"
     inkscape:current-layer="elements" />
  <defs
     id="defs4">
    <style
       id="style2">.cls-1{fill:#a25ac4;}.cls-2{fill:#fff;}</style>
  </defs>
  <title
     id="title6">estilos iconos paraeducaand_adultos</title>
  <g
     id="elements">
    <rect
       class="cls-1"
       width="60"
       height="60"
       rx="8.1300001"
       id="rect8"
       x="0"
       y="0"
       style="fill:#333333;fill-opacity:1" />
    <path
       class="cls-2"
       d="m 40.06,28.32 -14,-8.1 A 2,2 0 0 0 24,20 2,2 0 0 0 23.14,21.86 V 38.11 A 2,2 0 0 0 24,40 1.55,1.55 0 0 0 24.77,40.2 2.52,2.52 0 0 0 26,39.78 l 14,-8.1 A 2,2 0 0 0 41.25,30 2,2 0 0 0 40.06,28.32 Z m -0.75,2.05 -14,8.1 a 1.43,1.43 0 0 1 -0.52,0.2 1,1 0 0 1 -0.12,-0.56 V 21.89 c 0,-0.36 0.09,-0.53 0.12,-0.54 a 1.07,1.07 0 0 1 0.52,0.18 l 14,8.1 a 1.88,1.88 0 0 1 0.43,0.35 1.14,1.14 0 0 1 -0.43,0.39 z"
       id="path10" />
    <path
       class="cls-2"
       d="M 30,10.44 A 19.56,19.56 0 1 0 49.56,30 19.59,19.59 0 0 0 30,10.44 Z m 0,37.49 A 17.93,17.93 0 1 1 47.93,30 17.95,17.95 0 0 1 30,47.93 Z"
       id="path12" />
  </g>
  <metadata
     id="metadata834">
    <rdf:RDF>
      <cc:Work
         rdf:about="">
        <dc:title>estilos iconos paraeducaand_adultos</dc:title>
      </cc:Work>
    </rdf:RDF>
  </metadata>
</svg>
