<?xml version="1.0" encoding="UTF-8" standalone="no"?>
<svg
   preserveAspectRatio="xMinYMid"
   viewbox="0 0 60 60"
   version="1.1"
   id="svg31"
   sodipodi:docname="icon_udl_eng_orientaciones.svg"
   inkscape:version="1.1.2 (0a00cf5339, 2022-02-04)"
   xmlns:inkscape="http://www.inkscape.org/namespaces/inkscape"
   xmlns:sodipodi="http://sodipodi.sourceforge.net/DTD/sodipodi-0.dtd"
   xmlns="http://www.w3.org/2000/svg"
   xmlns:svg="http://www.w3.org/2000/svg"
   xmlns:rdf="http://www.w3.org/1999/02/22-rdf-syntax-ns#"
   xmlns:cc="http://creativecommons.org/ns#"
   xmlns:dc="http://purl.org/dc/elements/1.1/">
  <sodipodi:namedview
     id="namedview33"
     pagecolor="#ffffff"
     bordercolor="#666666"
     borderopacity="1.0"
     inkscape:pageshadow="2"
     inkscape:pageopacity="0.0"
     inkscape:pagecheckerboard="0"
     showgrid="false"
     inkscape:zoom="4.1866667"
     inkscape:cx="150"
     inkscape:cy="74.880573"
     inkscape:window-width="1920"
     inkscape:window-height="1005"
     inkscape:window-x="0"
     inkscape:window-y="0"
     inkscape:window-maximized="1"
     inkscape:current-layer="elements" />
  <defs
     id="defs4">
    <style
       id="style2">.cls-1{fill:#499113;}.cls-2{fill:#fff;}</style>
  </defs>
  <title
     id="title6">estilos iconos paraeducaand_adultos</title>
  <g
     id="elements">
    <path
       class="cls-1"
       d="M 58.08,25.37 34.63,1.92 a 6.55,6.55 0 0 0 -9.26,0 L 1.92,25.37 a 6.54,6.54 0 0 0 0,9.26 l 23.45,23.45 a 6.54,6.54 0 0 0 9.26,0 L 58.08,34.63 a 6.54,6.54 0 0 0 0,-9.26 z"
       id="path8"
       style="fill:#333333;fill-opacity:1" />
    <path
       class="cls-2"
       d="M 31.69,14.07 H 31 l -2.15,-2.86 c 0,0 0,-0.05 -0.08,-0.11 a 1.4,1.4 0 0 1 -0.12,-0.18 l -0.12,-0.19 a 0.76,0.76 0 0 1 -0.08,-0.15 v 3.49 h -0.62 v -4.4 h 0.7 l 2.05,2.76 A 0.83,0.83 0 0 1 30.7,12.6 1.37,1.37 0 0 1 30.83,12.8 1.51,1.51 0 0 1 31,13 l 0.09,0.15 V 9.67 h 0.62 z"
       id="path10" />
    <path
       class="cls-2"
       d="m 31.12,49 a 1.35,1.35 0 0 1 -0.09,0.5 1.2,1.2 0 0 1 -0.28,0.41 1.28,1.28 0 0 1 -0.45,0.28 1.74,1.74 0 0 1 -0.63,0.1 H 29.33 L 29,50.24 28.71,50.14 a 0.84,0.84 0 0 1 -0.23,-0.12 v -0.68 a 1.28,1.28 0 0 0 0.26,0.16 l 0.31,0.13 a 2.33,2.33 0 0 0 0.32,0.1 1.11,1.11 0 0 0 0.29,0 1.18,1.18 0 0 0 0.35,-0.05 0.68,0.68 0 0 0 0.25,-0.14 0.86,0.86 0 0 0 0.15,-0.22 0.87,0.87 0 0 0 0.05,-0.28 0.52,0.52 0 0 0 -0.07,-0.29 0.68,0.68 0 0 0 -0.17,-0.21 1.47,1.47 0 0 0 -0.28,-0.16 l -0.37,-0.15 c -0.18,-0.07 -0.34,-0.15 -0.49,-0.22 a 1.64,1.64 0 0 1 -0.36,-0.25 1,1 0 0 1 -0.22,-0.33 1.15,1.15 0 0 1 -0.08,-0.44 1.06,1.06 0 0 1 0.12,-0.5 1.14,1.14 0 0 1 0.3,-0.39 1.54,1.54 0 0 1 0.46,-0.24 1.63,1.63 0 0 1 0.55,-0.09 2.49,2.49 0 0 1 0.57,0.06 2.88,2.88 0 0 1 0.47,0.15 v 0.61 L 30.66,46.5 30.39,46.42 A 1.5,1.5 0 0 0 30.1,46.36 h -0.27 a 1,1 0 0 0 -0.32,0 0.73,0.73 0 0 0 -0.23,0.13 0.48,0.48 0 0 0 -0.15,0.2 0.66,0.66 0 0 0 -0.05,0.25 0.53,0.53 0 0 0 0.06,0.26 0.89,0.89 0 0 0 0.19,0.2 1.88,1.88 0 0 0 0.29,0.16 l 0.37,0.15 a 3,3 0 0 1 0.47,0.22 1.66,1.66 0 0 1 0.36,0.26 1.11,1.11 0 0 1 0.22,0.34 1.25,1.25 0 0 1 0.08,0.47 z"
       id="path12" />
    <path
       class="cls-2"
       d="m 47.82,32.2 h -2.2 v -4.4 h 2.19 v 0.57 h -1.53 v 1.34 h 1.54 v 0.56 h -1.54 v 1.36 h 1.54 z"
       id="path14" />
    <path
       class="cls-2"
       d="m 10.38,30 c 0,-1.42 0.7,-2.24 1.71,-2.24 1.01,0 1.7,0.82 1.7,2.24 0,1.42 -0.7,2.29 -1.7,2.29 -1,0 -1.71,-0.85 -1.71,-2.29 z m 2.71,0 c 0,-1 -0.4,-1.66 -1,-1.66 -0.6,0 -1,0.61 -1,1.66 0,1.05 0.4,1.71 1,1.71 0.6,0 1,-0.64 1,-1.71 z"
       id="path16" />
    <path
       class="cls-2"
       d="m 29.75,44.12 a 14,14 0 1 1 14,-13.95 14,14 0 0 1 -14,13.95 z m 0,-26.79 A 12.84,12.84 0 1 0 42.58,30.17 12.85,12.85 0 0 0 29.75,17.33 Z"
       id="path18" />
    <path
       class="cls-2"
       d="M 31.17,20.12 A 10.16,10.16 0 0 1 39.83,29 v 0.13 h 1.21 v -0.17 a 11.32,11.32 0 0 0 -9.86,-10 z"
       id="path20" />
    <path
       class="cls-2"
       d="m 19.67,29 a 10.17,10.17 0 0 1 8.66,-8.85 v -1.24 a 11.33,11.33 0 0 0 -9.86,10 v 0.17 h 1.21 z"
       id="path22" />
    <path
       class="cls-2"
       d="m 28.33,40.21 a 10.17,10.17 0 0 1 -8.66,-8.85 v -0.13 h -1.22 v 0.17 a 11.33,11.33 0 0 0 9.86,10 z"
       id="path24" />
    <path
       class="cls-2"
       d="m 39.83,31.36 a 10.16,10.16 0 0 1 -8.66,8.85 v 1.21 A 11.32,11.32 0 0 0 41,31.4 v -0.17 h -1.16 z"
       id="path26" />
    <polygon
       class="cls-2"
       points="28.47,29.36 27.26,32.79 26.04,36.23 28.75,33.79 31.46,31.35 32.68,27.92 33.89,24.48 31.18,26.92 "
       id="polygon28" />
  </g>
  <metadata
     id="metadata850">
    <rdf:RDF>
      <cc:Work
         rdf:about="">
        <dc:title>estilos iconos paraeducaand_adultos</dc:title>
      </cc:Work>
    </rdf:RDF>
  </metadata>
</svg>
