<?xml version="1.0" encoding="UTF-8" standalone="no"?>
<svg
   preserveAspectRatio="xMinYMid"
   viewbox="0 0 60 60"
   version="1.1"
   id="svg17"
   sodipodi:docname="icon_udl_exp_escribe.svg"
   inkscape:version="1.1.2 (0a00cf5339, 2022-02-04)"
   xmlns:inkscape="http://www.inkscape.org/namespaces/inkscape"
   xmlns:sodipodi="http://sodipodi.sourceforge.net/DTD/sodipodi-0.dtd"
   xmlns="http://www.w3.org/2000/svg"
   xmlns:svg="http://www.w3.org/2000/svg"
   xmlns:rdf="http://www.w3.org/1999/02/22-rdf-syntax-ns#"
   xmlns:cc="http://creativecommons.org/ns#"
   xmlns:dc="http://purl.org/dc/elements/1.1/">
  <sodipodi:namedview
     id="namedview19"
     pagecolor="#ffffff"
     bordercolor="#666666"
     borderopacity="1.0"
     inkscape:pageshadow="2"
     inkscape:pageopacity="0.0"
     inkscape:pagecheckerboard="0"
     showgrid="false"
     inkscape:zoom="4.1866667"
     inkscape:cx="145.46178"
     inkscape:cy="74.880573"
     inkscape:window-width="1920"
     inkscape:window-height="1005"
     inkscape:window-x="0"
     inkscape:window-y="0"
     inkscape:window-maximized="1"
     inkscape:current-layer="elements" />
  <defs
     id="defs4">
    <style
       id="style2">.cls-1{fill:#0065ab;}.cls-2{fill:#fff;}</style>
  </defs>
  <title
     id="title6">estilos iconos paraeducaand_adultos</title>
  <g
     id="elements">
    <circle
       class="cls-1"
       cx="30"
       cy="30"
       r="30"
       id="circle8"
       style="fill:#333333;fill-opacity:1" />
    <path
       class="cls-2"
       d="m 46.12,17.13 a 4.41,4.41 0 0 0 -1.78,-3 L 38.44,9.8 A 4.49,4.49 0 0 0 35,9 4.78,4.78 0 0 0 32,10.91 L 15.68,33.16 a 0.72,0.72 0 0 0 -0.12,0.27 0.72,0.72 0 0 0 -0.35,0.55 l -1.37,14.5 a 0.76,0.76 0 0 0 0.3,0.67 0.79,0.79 0 0 0 0.44,0.14 0.72,0.72 0 0 0 0.29,-0.06 L 28.28,43.56 A 0.78,0.78 0 0 0 28.7,43 0.66,0.66 0 0 0 28.92,42.81 l 16.3,-22.26 a 4.78,4.78 0 0 0 0.9,-3.42 z M 21.6,44.51 16.37,40.69 a 0.69,0.69 0 0 0 -0.29,-0.13 l 0.56,-6 a 1.07,1.07 0 0 0 0.18,0.19 l 10.44,7.64 -5.49,2.31 A 0.77,0.77 0 0 0 21.6,44.51 Z m -5.68,-2.31 4.31,3.15 -4.79,2 z M 44,19.71 28.25,41.26 17.7,33.53 A 0.83,0.83 0 0 0 17.34,33.4 L 33.18,11.77 a 3.32,3.32 0 0 1 2.09,-1.32 3,3 0 0 1 2.29,0.52 l 5.91,4.33 a 2.94,2.94 0 0 1 1.18,2 3.28,3.28 0 0 1 -0.65,2.41 z"
       id="path10" />
    <path
       class="cls-2"
       d="M 39.17,19.31 27.7,35 a 0.75,0.75 0 0 0 0.16,1 0.82,0.82 0 0 0 0.44,0.14 0.75,0.75 0 0 0 0.6,-0.3 L 40.37,20.19 a 0.74404301,0.74404301 0 0 0 -1.2,-0.88 z"
       id="path12" />
    <path
       class="cls-2"
       d="M 40.51,49.46 H 17.44 a 0.81,0.81 0 1 0 0,1.62 h 23.07 a 0.81,0.81 0 1 0 0,-1.62 z"
       id="path14" />
  </g>
  <metadata
     id="metadata836">
    <rdf:RDF>
      <cc:Work
         rdf:about="">
        <dc:title>estilos iconos paraeducaand_adultos</dc:title>
      </cc:Work>
    </rdf:RDF>
  </metadata>
</svg>
