<?xml version="1.0" encoding="UTF-8" standalone="no"?>
<svg
   preserveAspectRatio="xMinYMid"
   viewbox="0 0 60 60"
   version="1.1"
   id="svg17"
   sodipodi:docname="icon_udl_rep_reflexion.svg"
   inkscape:version="1.1.2 (0a00cf5339, 2022-02-04)"
   xmlns:inkscape="http://www.inkscape.org/namespaces/inkscape"
   xmlns:sodipodi="http://sodipodi.sourceforge.net/DTD/sodipodi-0.dtd"
   xmlns="http://www.w3.org/2000/svg"
   xmlns:svg="http://www.w3.org/2000/svg"
   xmlns:rdf="http://www.w3.org/1999/02/22-rdf-syntax-ns#"
   xmlns:cc="http://creativecommons.org/ns#"
   xmlns:dc="http://purl.org/dc/elements/1.1/">
  <sodipodi:namedview
     id="namedview19"
     pagecolor="#ffffff"
     bordercolor="#666666"
     borderopacity="1.0"
     inkscape:pageshadow="2"
     inkscape:pageopacity="0.0"
     inkscape:pagecheckerboard="0"
     showgrid="false"
     inkscape:zoom="4.1866667"
     inkscape:cx="150"
     inkscape:cy="74.402866"
     inkscape:window-width="1920"
     inkscape:window-height="1005"
     inkscape:window-x="0"
     inkscape:window-y="0"
     inkscape:window-maximized="1"
     inkscape:current-layer="elements" />
  <defs
     id="defs4">
    <style
       id="style2">.cls-1{fill:#a25ac4;}.cls-2{fill:#fff;}</style>
  </defs>
  <title
     id="title6">estilos iconos paraeducaand_adultos</title>
  <g
     id="elements">
    <rect
       class="cls-1"
       width="60"
       height="60"
       rx="8.1300001"
       id="rect8"
       x="0"
       y="0"
       style="fill:#333333;fill-opacity:1" />
    <path
       class="cls-2"
       d="m 45.46,32.09 -2.83,-5.2 v -3.52 a 15.08,15.08 0 0 0 -30.15,0 V 26 a 15.51,15.51 0 0 0 2.8,8.92 v 0 11.38 c 0,0.25 0,0.47 0.22,0.58 l 0.74,0.36 0.11,0.06 c 0,0 16.28,7.07 16.28,7.07 a 0.83,0.83 0 0 0 0.75,-0.06 0.79,0.79 0 0 0 0.35,-0.66 v -8.32 a 0.55,0.55 0 0 1 0.55,-0.55 H 37 a 5.62,5.62 0 0 0 5.61,-5.61 v -3.25 h 0.55 a 2.59,2.59 0 0 0 2.28,-3.83 z m -1.4,1.76 a 1,1 0 0 1 -0.87,0.5 h -1.34 a 0.79,0.79 0 0 0 -0.79,0.79 v 4 a 4,4 0 0 1 -4,4 H 34.3 a 2.12,2.12 0 0 0 -2.12,2.12 v 7.1 H 32 L 17.16,45.9 v 0 L 16.87,45.77 V 34.68 A 0.75,0.75 0 0 0 16.72,34.22 13.93,13.93 0 0 1 14.05,26 v -2.63 a 13.51,13.51 0 0 1 27,0 v 3.76 a 0.69,0.69 0 0 0 0.1,0.37 l 2.92,5.35 a 1,1 0 0 1 -0.01,1 z"
       id="path10" />
    <path
       class="cls-2"
       d="m 36.39,20.37 -0.68,-0.09 v -0.06 l -0.12,-0.29 v -0.07 l 0.42,-0.54 a 2,2 0 0 0 0,-2.71 L 34.34,15 a 2.05,2.05 0 0 0 -2.72,0 l -0.53,0.43 h -0.07 l -0.29,-0.12 h -0.07 l -0.08,-0.68 a 2.05,2.05 0 0 0 -1.94,-1.9 h -2.25 a 2,2 0 0 0 -1.94,1.9 l -0.09,0.68 H 24.3 l -0.29,0.12 H 23.94 L 23.41,15 a 2.05,2.05 0 0 0 -2.72,0 l -1.59,1.61 a 2,2 0 0 0 0,2.71 l 0.42,0.54 v 0.07 l -0.12,0.29 v 0.07 l -0.68,0.08 a 2,2 0 0 0 -1.9,1.94 v 2.25 a 2.05,2.05 0 0 0 1.9,1.94 l 0.68,0.08 v 0.07 l 0.12,0.29 V 27 l -0.42,0.54 a 2,2 0 0 0 0,2.72 l 1.59,1.59 a 2.05,2.05 0 0 0 2.72,0 l 0.53,-0.42 h 0.07 l 0.29,0.12 h 0.06 l 0.09,0.68 a 2,2 0 0 0 1.94,1.9 h 2.25 a 2,2 0 0 0 1.94,-1.9 l 0.08,-0.68 h 0.07 l 0.29,-0.12 h 0.07 l 0.53,0.42 a 2.05,2.05 0 0 0 2.72,0 l 1.59,-1.59 a 2.05,2.05 0 0 0 0,-2.72 L 35.54,27 v -0.07 l 0.12,-0.29 v -0.07 l 0.68,-0.08 a 2,2 0 0 0 1.9,-1.94 v -2.24 a 2,2 0 0 0 -1.85,-1.94 z m 0.33,4.19 c 0,0.18 -0.23,0.35 -0.51,0.38 L 35,25.08 a 0.79,0.79 0 0 0 -0.65,0.54 7.3,7.3 0 0 1 -0.47,1.13 0.78,0.78 0 0 0 0.08,0.84 l 0.73,0.93 c 0.18,0.22 0.22,0.51 0.09,0.63 l -1.59,1.59 a 0.53,0.53 0 0 1 -0.63,-0.09 l -0.93,-0.73 a 0.78,0.78 0 0 0 -0.84,-0.08 7.47,7.47 0 0 1 -1.13,0.47 0.79,0.79 0 0 0 -0.54,0.65 L 29,32.13 c 0,0.28 -0.2,0.51 -0.38,0.51 h -2.23 c -0.18,0 -0.35,-0.23 -0.38,-0.51 L 25.87,31 a 0.79,0.79 0 0 0 -0.54,-0.65 7.47,7.47 0 0 1 -1.13,-0.47 0.82,0.82 0 0 0 -0.85,0.08 l -0.92,0.73 c -0.22,0.18 -0.51,0.22 -0.63,0.09 l -1.59,-1.59 c -0.13,-0.13 -0.09,-0.41 0.09,-0.63 l 0.73,-0.93 a 0.78,0.78 0 0 0 0.08,-0.84 7.3,7.3 0 0 1 -0.47,-1.13 0.79,0.79 0 0 0 -0.66,-0.54 l -1.16,-0.14 c -0.28,0 -0.51,-0.2 -0.51,-0.38 v -2.29 c 0,-0.18 0.23,-0.35 0.51,-0.38 L 20,21.79 a 0.79,0.79 0 0 0 0.66,-0.54 6.57,6.57 0 0 1 0.47,-1.13 0.8,0.8 0 0 0 -0.08,-0.85 L 20.32,18.35 C 20.14,18.13 20.1,17.84 20.23,17.72 l 1.59,-1.59 c 0.12,-0.13 0.41,-0.09 0.63,0.09 l 0.92,0.72 a 0.78,0.78 0 0 0 0.85,0.09 6.57,6.57 0 0 1 1.13,-0.47 0.79,0.79 0 0 0 0.54,-0.66 L 26,14.74 c 0,-0.28 0.2,-0.51 0.38,-0.51 h 2.25 c 0.18,0 0.35,0.23 0.38,0.51 l 0.14,1.16 a 0.79,0.79 0 0 0 0.54,0.66 6.57,6.57 0 0 1 1.13,0.47 0.78,0.78 0 0 0 0.84,-0.08 l 0.93,-0.73 c 0.22,-0.18 0.5,-0.22 0.63,-0.09 l 1.59,1.59 c 0.13,0.12 0.09,0.41 -0.09,0.63 l -0.73,0.92 a 0.8,0.8 0 0 0 -0.08,0.85 7.47,7.47 0 0 1 0.47,1.13 0.79,0.79 0 0 0 0.65,0.54 l 1.17,0.14 c 0.28,0 0.51,0.2 0.51,0.38 z"
       id="path12" />
    <path
       class="cls-2"
       d="M 27.51,19 A 4.47,4.47 0 1 0 32,23.43 4.46,4.46 0 0 0 27.51,19 Z m 2,6.51 a 2.89,2.89 0 0 1 -2,0.84 v 0 a 2.89,2.89 0 1 1 2.9,-2.89 2.92,2.92 0 0 1 -0.85,2.02 z"
       id="path14" />
  </g>
  <metadata
     id="metadata836">
    <rdf:RDF>
      <cc:Work
         rdf:about="">
        <dc:title>estilos iconos paraeducaand_adultos</dc:title>
      </cc:Work>
    </rdf:RDF>
  </metadata>
</svg>
