<?xml version="1.0" encoding="UTF-8" standalone="no"?>
<svg
   preserveAspectRatio="xMinYMid"
   viewbox="0 0 60 60"
   version="1.1"
   id="svg23"
   sodipodi:docname="icon_udl_rep_importante.svg"
   inkscape:version="1.1.2 (0a00cf5339, 2022-02-04)"
   xmlns:inkscape="http://www.inkscape.org/namespaces/inkscape"
   xmlns:sodipodi="http://sodipodi.sourceforge.net/DTD/sodipodi-0.dtd"
   xmlns="http://www.w3.org/2000/svg"
   xmlns:svg="http://www.w3.org/2000/svg"
   xmlns:rdf="http://www.w3.org/1999/02/22-rdf-syntax-ns#"
   xmlns:cc="http://creativecommons.org/ns#"
   xmlns:dc="http://purl.org/dc/elements/1.1/">
  <sodipodi:namedview
     id="namedview25"
     pagecolor="#ffffff"
     bordercolor="#666666"
     borderopacity="1.0"
     inkscape:pageshadow="2"
     inkscape:pageopacity="0.0"
     inkscape:pagecheckerboard="0"
     showgrid="false"
     inkscape:zoom="4.1866667"
     inkscape:cx="150"
     inkscape:cy="74.880573"
     inkscape:window-width="1920"
     inkscape:window-height="1005"
     inkscape:window-x="0"
     inkscape:window-y="0"
     inkscape:window-maximized="1"
     inkscape:current-layer="elements" />
  <defs
     id="defs4">
    <style
       id="style2">.cls-1{fill:#a25ac4;}.cls-2{fill:none;}.cls-3{fill:#fff;}</style>
  </defs>
  <title
     id="title6">estilos iconos paraeducaand_adultos</title>
  <g
     id="elements">
    <rect
       class="cls-1"
       width="60"
       height="60"
       rx="8.1300001"
       id="rect8"
       x="0"
       y="0"
       style="fill:#333333;fill-opacity:1" />
    <polygon
       class="cls-2"
       points="32.3,21.11 31.78,21.03 31.55,20.56 30,17.43 28.45,20.56 28.22,21.03 27.7,21.11 24.24,21.61 26.74,24.05 27.12,24.42 27.03,24.94 26.44,28.38 29.54,26.76 30,26.51 30.46,26.76 33.56,28.38 32.97,24.94 32.88,24.42 33.26,24.05 35.76,21.61 "
       id="polygon10" />
    <path
       class="cls-2"
       d="M 30,11.39 A 11.44,11.44 0 1 0 41.44,22.82 11.45,11.45 0 0 0 30,11.39 Z m 4.89,18.82 -4.89,-2.57 -4.89,2.57 0.94,-5.44 -4,-3.86 5.47,-0.79 2.44,-5 2.44,5 5.47,0.79 -4,3.86 z"
       id="path12" />
    <path
       class="cls-2"
       d="M 30,6.54 A 16.3,16.3 0 0 0 13.72,22.82 C 13.72,30.89 27,49 30,53 33,49 46.28,30.92 46.28,22.85 A 16.3,16.3 0 0 0 30,6.54 Z m 0,29.22 A 12.94,12.94 0 1 1 42.94,22.82 13,13 0 0 1 30,35.76 Z"
       id="path14" />
    <path
       class="cls-3"
       d="M 30,5 A 17.81,17.81 0 0 0 12.22,22.82 c 0,9.56 16.49,30.94 17.19,31.85 L 30,55.43 30.59,54.67 C 31.3,53.76 47.78,32.38 47.78,22.82 A 17.81,17.81 0 0 0 30,5 Z m 0,48 C 27,49 13.72,30.92 13.72,22.85 a 16.28,16.28 0 0 1 32.56,0 C 46.28,30.89 33,49 30,53 Z"
       id="path16" />
    <path
       class="cls-3"
       d="M 30,9.89 A 12.94,12.94 0 1 0 42.94,22.82 13,13 0 0 0 30,9.89 Z m 0,24.37 A 11.44,11.44 0 1 1 41.44,22.82 11.45,11.45 0 0 1 30,34.26 Z"
       id="path18" />
    <path
       class="cls-3"
       d="m 32.44,20.12 -2.44,-5 -2.44,5 -5.47,0.79 4,3.86 -0.94,5.44 4.85,-2.57 4.89,2.57 -0.89,-5.44 4,-3.86 z m 0.56,4.82 0.59,3.44 -3.09,-1.62 -0.5,-0.25 -0.47,0.25 -3.09,1.62 0.56,-3.44 0.09,-0.52 -0.38,-0.37 -2.5,-2.44 3.46,-0.5 0.52,-0.08 0.23,-0.47 1.58,-3.13 1.55,3.13 0.23,0.47 0.52,0.08 3.46,0.5 -2.5,2.44 -0.38,0.37 z"
       id="path20" />
  </g>
  <metadata
     id="metadata842">
    <rdf:RDF>
      <cc:Work
         rdf:about="">
        <dc:title>estilos iconos paraeducaand_adultos</dc:title>
      </cc:Work>
    </rdf:RDF>
  </metadata>
</svg>
