<?xml version="1.0" encoding="UTF-8" standalone="no"?>
<svg
   preserveAspectRatio="xMinYMid"
   viewbox="0 0 60 60"
   version="1.1"
   id="svg23"
   sodipodi:docname="icon_udl_exp_juego.svg"
   inkscape:version="1.1.2 (0a00cf5339, 2022-02-04)"
   xmlns:inkscape="http://www.inkscape.org/namespaces/inkscape"
   xmlns:sodipodi="http://sodipodi.sourceforge.net/DTD/sodipodi-0.dtd"
   xmlns="http://www.w3.org/2000/svg"
   xmlns:svg="http://www.w3.org/2000/svg"
   xmlns:rdf="http://www.w3.org/1999/02/22-rdf-syntax-ns#"
   xmlns:cc="http://creativecommons.org/ns#"
   xmlns:dc="http://purl.org/dc/elements/1.1/">
  <sodipodi:namedview
     id="namedview25"
     pagecolor="#ffffff"
     bordercolor="#666666"
     borderopacity="1.0"
     inkscape:pageshadow="2"
     inkscape:pageopacity="0.0"
     inkscape:pagecheckerboard="0"
     showgrid="false"
     inkscape:zoom="4.1866667"
     inkscape:cx="150"
     inkscape:cy="74.880573"
     inkscape:window-width="1920"
     inkscape:window-height="1005"
     inkscape:window-x="0"
     inkscape:window-y="0"
     inkscape:window-maximized="1"
     inkscape:current-layer="elements" />
  <defs
     id="defs4">
    <style
       id="style2">.cls-1{fill:#0065ab;}.cls-2{fill:#fff;}</style>
  </defs>
  <title
     id="title6">estilos iconos paraeducaand_adultos</title>
  <g
     id="elements">
    <circle
       class="cls-1"
       cx="30"
       cy="30"
       r="30"
       id="circle8"
       style="fill:#333333;fill-opacity:1" />
    <path
       class="cls-2"
       d="m 46.47,45.46 v 0 a 6.27,6.27 0 0 1 -2.57,-0.59 15.67,15.67 0 0 1 -5,-4.21 18.8,18.8 0 0 0 -3.23,-3.1 10,10 0 0 0 -11.32,0 18.8,18.8 0 0 0 -3.23,3.1 15.52,15.52 0 0 1 -5,4.2 6.13,6.13 0 0 1 -2.57,0.6 5.14,5.14 0 0 1 -3.79,-1.68 7.86,7.86 0 0 1 -1.93,-3.91 c -0.71,-3.59 0,-7.16 0.75,-10.62 0.07,-0.38 0.16,-0.77 0.23,-1.15 a 25.28,25.28 0 0 1 2.05,-6.1 17.26,17.26 0 0 1 3.85,-5.24 8.75,8.75 0 0 1 6.07,-2.23 15.94,15.94 0 0 1 5.23,1 c 0.51,0.18 1,0.4 1.49,0.62 A 7.73,7.73 0 0 0 30,17 7.73,7.73 0 0 0 32.5,16.17 c 0.48,-0.22 1,-0.44 1.49,-0.62 a 15.94,15.94 0 0 1 5.23,-1 8.75,8.75 0 0 1 6.07,2.23 17.26,17.26 0 0 1 3.85,5.22 25.28,25.28 0 0 1 2.07,6.09 c 0.07,0.38 0.16,0.77 0.23,1.15 0.72,3.46 1.46,7 0.75,10.62 a 7.81,7.81 0 0 1 -1.93,3.91 5.14,5.14 0 0 1 -3.79,1.69 z M 30,34 a 11.67,11.67 0 0 1 6.66,2.08 20.73,20.73 0 0 1 3.56,3.37 14.06,14.06 0 0 0 4.41,3.78 4.47,4.47 0 0 0 1.84,0.43 c 1.91,0 3.47,-1.63 4,-4.16 0.65,-3.24 0,-6.63 -0.73,-9.91 C 49.66,29.21 49.57,28.82 49.5,28.43 48.64,24.2 46.64,20.32 44.13,18.06 a 7.06,7.06 0 0 0 -4.88,-1.77 14,14 0 0 0 -4.64,0.9 c -0.44,0.15 -0.88,0.35 -1.35,0.56 a 9,9 0 0 1 -3.18,1 H 30 a 9,9 0 0 1 -3.18,-1 c -0.47,-0.21 -0.91,-0.41 -1.35,-0.56 a 14,14 0 0 0 -4.64,-0.9 7.06,7.06 0 0 0 -4.88,1.77 c -2.51,2.26 -4.51,6.14 -5.37,10.37 -0.07,0.39 -0.16,0.78 -0.24,1.16 -0.68,3.28 -1.38,6.67 -0.73,9.91 0.5,2.53 2.06,4.16 4,4.16 a 4.47,4.47 0 0 0 1.84,-0.43 14.06,14.06 0 0 0 4.41,-3.78 21,21 0 0 1 3.55,-3.37 A 11.72,11.72 0 0 1 30,34 Z"
       id="path10" />
    <path
       class="cls-2"
       d="M 22.35,25.48 H 20 v -2.43 c 0,-0.84 -2.36,-0.84 -2.36,0 v 2.43 h -2.49 c -0.81,0 -0.81,2.39 0,2.39 h 2.45 v 2.35 c 0,0.84 2.36,0.84 2.36,0 v -2.35 h 2.39 c 0.8,0 0.8,-2.39 0,-2.39 z"
       id="path12" />
    <path
       class="cls-2"
       d="m 43.19,25.69 a 1.3116878,1.3116878 0 0 1 1.86,1.85 1.3116878,1.3116878 0 1 1 -1.86,-1.85 z"
       id="path14" />
    <path
       class="cls-2"
       d="m 36.9,25.69 a 1.31,1.31 0 1 1 1.85,1.85 1.31,1.31 0 0 1 -1.85,-1.85 z"
       id="path16" />
    <path
       class="cls-2"
       d="m 41.9,28.84 a 1.31,1.31 0 1 1 -1.86,0 1.31,1.31 0 0 1 1.86,0 z"
       id="path18" />
    <path
       class="cls-2"
       d="m 41.9,22.54 a 1.32,1.32 0 1 1 -1.86,0 1.32,1.32 0 0 1 1.86,0 z"
       id="path20" />
  </g>
  <metadata
     id="metadata842">
    <rdf:RDF>
      <cc:Work
         rdf:about="">
        <dc:title>estilos iconos paraeducaand_adultos</dc:title>
      </cc:Work>
    </rdf:RDF>
  </metadata>
</svg>
