<?xml version="1.0" encoding="UTF-8" standalone="no"?>
<svg
   preserveAspectRatio="xMinYMid"
   viewbox="0 0 60 60"
   version="1.1"
   id="svg21"
   sodipodi:docname="icon_udl_exp_debate.svg"
   inkscape:version="1.1.2 (0a00cf5339, 2022-02-04)"
   xmlns:inkscape="http://www.inkscape.org/namespaces/inkscape"
   xmlns:sodipodi="http://sodipodi.sourceforge.net/DTD/sodipodi-0.dtd"
   xmlns="http://www.w3.org/2000/svg"
   xmlns:svg="http://www.w3.org/2000/svg"
   xmlns:rdf="http://www.w3.org/1999/02/22-rdf-syntax-ns#"
   xmlns:cc="http://creativecommons.org/ns#"
   xmlns:dc="http://purl.org/dc/elements/1.1/">
  <sodipodi:namedview
     id="namedview23"
     pagecolor="#ffffff"
     bordercolor="#666666"
     borderopacity="1.0"
     inkscape:pageshadow="2"
     inkscape:pageopacity="0.0"
     inkscape:pagecheckerboard="0"
     showgrid="false"
     inkscape:zoom="4.1866667"
     inkscape:cx="102.70701"
     inkscape:cy="72.492038"
     inkscape:window-width="1920"
     inkscape:window-height="1005"
     inkscape:window-x="0"
     inkscape:window-y="0"
     inkscape:window-maximized="1"
     inkscape:current-layer="svg21" />
  <defs
     id="defs4">
    <style
       id="style2">.cls-1{fill:#0065ab;}.cls-2{fill:#fff;}</style>
  </defs>
  <title
     id="title6">estilos iconos paraeducaand_adultos</title>
  <g
     id="elements">
    <circle
       class="cls-1"
       cx="30"
       cy="30"
       r="30"
       id="circle8"
       style="fill:#333333;fill-opacity:1" />
    <circle
       class="cls-2"
       cx="25.43"
       cy="28.17"
       r="1.83"
       id="circle10" />
    <circle
       class="cls-2"
       cx="18.110001"
       cy="28.17"
       r="1.83"
       id="circle12" />
    <circle
       class="cls-2"
       cx="32.740002"
       cy="28.17"
       r="1.83"
       id="circle14" />
    <path
       class="cls-2"
       d="m 42.57,28.17 c 0,-7.94 -7.69,-14.4 -17.14,-14.4 -9.45,0 -17.15,6.46 -17.15,14.4 a 12.75,12.75 0 0 0 3,8.13 l -2.06,7.23 a 0.69,0.69 0 0 0 0.24,0.72 0.66,0.66 0 0 0 0.42,0.15 0.69,0.69 0 0 0 0.34,-0.09 l 6.63,-3.68 a 19.75,19.75 0 0 0 8.58,1.94 c 9.45,0 17.14,-6.46 17.14,-14.4 z m -17.14,13 a 18.23,18.23 0 0 1 -8.28,-2 0.71,0.71 0 0 0 -0.65,0 l -5.5,3.14 1.71,-6 A 0.71,0.71 0 0 0 12.57,35.67 11.45,11.45 0 0 1 9.66,28.15 c 0,-7.18 7.07,-13 15.77,-13 8.7,0 15.77,5.85 15.77,13.02 0,7.17 -7.07,13.03 -15.77,13.03 z"
       id="path16" />
    <path
       class="cls-2"
       d="m 50.49,39.76 a 11.52,11.52 0 0 0 1.23,-5.19 11.66,11.66 0 0 0 -6.22,-10.31 0.68441581,0.68441581 0 1 0 -0.64,1.21 10.28,10.28 0 0 1 5.48,9.1 10.1,10.1 0 0 1 -1.18,4.78 0.72,0.72 0 0 0 -0.06,0.46 l 1,4.62 L 46.5,43 a 0.73,0.73 0 0 0 -0.64,0.07 10.28,10.28 0 0 1 -11.44,0.12 0.68,0.68 0 0 0 -1,0.2 0.69,0.69 0 0 0 0.2,0.95 11.66,11.66 0 0 0 12.65,0.07 l 4.46,1.78 a 0.67,0.67 0 0 0 0.69,-0.11 0.68,0.68 0 0 0 0.23,-0.67 z"
       id="path18" />
  </g>
  <metadata
     id="metadata840">
    <rdf:RDF>
      <cc:Work
         rdf:about="">
        <dc:title>estilos iconos paraeducaand_adultos</dc:title>
      </cc:Work>
    </rdf:RDF>
  </metadata>
</svg>
