<?xml version="1.0" encoding="UTF-8" standalone="no"?>
<svg
   preserveAspectRatio="xMinYMid"
   viewbox="0 0 60 60"
   version="1.1"
   id="svg39"
   sodipodi:docname="icon_udl_rep_caso.svg"
   inkscape:version="1.1.2 (0a00cf5339, 2022-02-04)"
   xmlns:inkscape="http://www.inkscape.org/namespaces/inkscape"
   xmlns:sodipodi="http://sodipodi.sourceforge.net/DTD/sodipodi-0.dtd"
   xmlns="http://www.w3.org/2000/svg"
   xmlns:svg="http://www.w3.org/2000/svg"
   xmlns:rdf="http://www.w3.org/1999/02/22-rdf-syntax-ns#"
   xmlns:cc="http://creativecommons.org/ns#"
   xmlns:dc="http://purl.org/dc/elements/1.1/">
  <sodipodi:namedview
     id="namedview41"
     pagecolor="#ffffff"
     bordercolor="#666666"
     borderopacity="1.0"
     inkscape:pageshadow="2"
     inkscape:pageopacity="0.0"
     inkscape:pagecheckerboard="0"
     showgrid="false"
     inkscape:zoom="4.1866667"
     inkscape:cx="145.46178"
     inkscape:cy="74.880573"
     inkscape:window-width="1920"
     inkscape:window-height="1005"
     inkscape:window-x="0"
     inkscape:window-y="0"
     inkscape:window-maximized="1"
     inkscape:current-layer="elements" />
  <defs
     id="defs4">
    <style
       id="style2">.cls-1{fill:#a25ac4;}.cls-2{fill:#fff;}</style>
  </defs>
  <title
     id="title6">estilos iconos paraeducaand_adultos</title>
  <g
     id="elements">
    <rect
       class="cls-1"
       width="60"
       height="60"
       rx="8.1300001"
       id="rect8"
       x="0"
       y="0"
       style="fill:#333333;fill-opacity:1" />
    <path
       class="cls-2"
       d="M 30,12.17 A 1.07,1.07 0 0 0 31.07,11.1 V 6.85 a 1.08,1.08 0 0 0 -2.15,0 V 11.1 A 1.08,1.08 0 0 0 30,12.17 Z"
       id="path10" />
    <path
       class="cls-2"
       d="m 21.51,13.66 a 1.07,1.07 0 0 0 0.93,0.54 1,1 0 0 0 0.53,-0.15 1.07,1.07 0 0 0 0.4,-1.47 L 21.25,8.91 A 1.082243,1.082243 0 0 0 19.38,10 Z"
       id="path12" />
    <path
       class="cls-2"
       d="m 17.44,17.73 -3.68,-2.12 a 1.0729049,1.0729049 0 0 0 -1.07,1.86 l 3.67,2.12 a 1.06,1.06 0 0 0 0.54,0.14 1.07,1.07 0 0 0 0.54,-2 z"
       id="path14" />
    <path
       class="cls-2"
       d="m 16,26.22 a 1.07,1.07 0 0 0 -1.08,-1.07 h -4.29 a 1.08,1.08 0 0 0 0,2.15 h 4.24 A 1.08,1.08 0 0 0 16,26.22 Z"
       id="path16" />
    <path
       class="cls-2"
       d="M 16.36,32.85 12.69,35 a 1.07,1.07 0 0 0 -0.39,1.47 1.05,1.05 0 0 0 0.93,0.54 1.13,1.13 0 0 0 0.53,-0.14 l 3.68,-2.12 a 1.08,1.08 0 0 0 -1.08,-1.87 z"
       id="path18" />
    <path
       class="cls-2"
       d="m 47.31,35 -3.67,-2.13 a 1.08,1.08 0 0 0 -1.08,1.87 l 3.68,2.12 a 1,1 0 0 0 0.53,0.14 1.07,1.07 0 0 0 0.54,-2 z"
       id="path20" />
    <path
       class="cls-2"
       d="m 49.37,25.15 h -4.24 a 1.08,1.08 0 1 0 0,2.15 h 4.24 a 1.08,1.08 0 0 0 0,-2.15 z"
       id="path22" />
    <path
       class="cls-2"
       d="m 43.1,19.73 a 1.06,1.06 0 0 0 0.54,-0.14 l 3.67,-2.12 A 1.07,1.07 0 0 0 47.7,16 1.06,1.06 0 0 0 46.24,15.61 l -3.68,2.12 a 1.07,1.07 0 0 0 0.54,2 z"
       id="path24" />
    <path
       class="cls-2"
       d="m 37,14.05 a 1,1 0 0 0 0.53,0.15 1.07,1.07 0 0 0 0.93,-0.54 L 40.62,10 A 1.08,1.08 0 0 0 38.75,8.92 l -2.12,3.67 A 1.07,1.07 0 0 0 37,14.05 Z"
       id="path26" />
    <path
       class="cls-2"
       d="M 30,14.56 A 11.69,11.69 0 0 0 18.32,26.24 c 0,3.52 1.54,5.65 2.9,7.53 1.15,1.59 2.14,3 2.28,5 l 0.07,1.06 a 2,2 0 0 0 2,1.84 h 8.94 a 2,2 0 0 0 2,-1.85 l 0.06,-1 c 0.15,-2.1 1.14,-3.47 2.29,-5.06 1.36,-1.88 2.9,-4 2.9,-7.53 A 11.69,11.69 0 0 0 30,14.56 Z m 7,17.95 a 11.35,11.35 0 0 0 -2.69,6.18 l -0.06,0.87 H 25.71 L 25.65,38.68 A 11.35,11.35 0 0 0 23,32.51 c -1.28,-1.77 -2.49,-3.44 -2.49,-6.27 a 9.53,9.53 0 0 1 19.06,0 c -0.04,2.83 -1.25,4.5 -2.57,6.27 z"
       id="path28" />
    <path
       class="cls-2"
       d="m 34.37,43.33 h -8.74 a 1.08,1.08 0 1 0 0,2.15 h 8.74 a 1.08,1.08 0 1 0 0,-2.15 z"
       id="path30" />
    <path
       class="cls-2"
       d="m 34.37,46.93 h -8.74 a 1.08,1.08 0 1 0 0,2.15 h 8.74 a 1.08,1.08 0 1 0 0,-2.15 z"
       id="path32" />
    <path
       class="cls-2"
       d="m 30,18 a 8.28,8.28 0 0 0 -8.27,8.27 1.08,1.08 0 1 0 2.15,0 A 6.13,6.13 0 0 1 30,20.1 1.08,1.08 0 0 0 30,18 Z"
       id="path34" />
    <path
       class="cls-2"
       d="m 26.71,53.35 a 1.52,1.52 0 0 0 1.39,0.87 h 3.8 a 1.5,1.5 0 0 0 1.39,-0.87 l 1.35,-2.85 h -9.28 z"
       id="path36" />
  </g>
  <metadata
     id="metadata858">
    <rdf:RDF>
      <cc:Work
         rdf:about="">
        <dc:title>estilos iconos paraeducaand_adultos</dc:title>
      </cc:Work>
    </rdf:RDF>
  </metadata>
</svg>
