<?xml version="1.0" encoding="UTF-8" standalone="no"?>
<svg
   preserveAspectRatio="xMinYMid"
   viewbox="0 0 60 60"
   version="1.1"
   id="svg13"
   sodipodi:docname="icon_udl_rep_conocer.svg"
   inkscape:version="1.1.2 (0a00cf5339, 2022-02-04)"
   xmlns:inkscape="http://www.inkscape.org/namespaces/inkscape"
   xmlns:sodipodi="http://sodipodi.sourceforge.net/DTD/sodipodi-0.dtd"
   xmlns="http://www.w3.org/2000/svg"
   xmlns:svg="http://www.w3.org/2000/svg"
   xmlns:rdf="http://www.w3.org/1999/02/22-rdf-syntax-ns#"
   xmlns:cc="http://creativecommons.org/ns#"
   xmlns:dc="http://purl.org/dc/elements/1.1/">
  <sodipodi:namedview
     id="namedview15"
     pagecolor="#ffffff"
     bordercolor="#666666"
     borderopacity="1.0"
     inkscape:pageshadow="2"
     inkscape:pageopacity="0.0"
     inkscape:pagecheckerboard="0"
     showgrid="false"
     inkscape:zoom="4.1866667"
     inkscape:cx="63.057325"
     inkscape:cy="-19.705414"
     inkscape:window-width="1920"
     inkscape:window-height="1005"
     inkscape:window-x="0"
     inkscape:window-y="0"
     inkscape:window-maximized="1"
     inkscape:current-layer="svg13" />
  <defs
     id="defs4">
    <style
       id="style2">.cls-1{fill:#a25ac4;}.cls-2{fill:#fff;}</style>
  </defs>
  <title
     id="title6">estilos iconos paraeducaand_adultos</title>
  <g
     id="elements">
    <rect
       class="cls-1"
       width="60"
       height="60"
       rx="8.1300001"
       id="rect8"
       x="0"
       y="0"
       style="fill:#333333;fill-opacity:1" />
    <path
       class="cls-2"
       d="m 30.61,53.85 1.65,-4.39 A 11.49,11.49 0 0 0 33,45.4 v -15 h 11.83 a 0.65,0.65 0 0 0 0.65,-0.65 8.45,8.45 0 0 0 -7.77,-8.43 h -0.1 V 21.21 L 36.2,10.15 H 37 a 2.24,2.24 0 0 0 1.57,-0.64 2.17,2.17 0 0 0 0,-3.12 v 0 A 2.22,2.22 0 0 0 37,5.72 H 23 A 2.23,2.23 0 0 0 20.78,7.94 2.17,2.17 0 0 0 21.43,9.5 2.21,2.21 0 0 0 23,10.15 h 0.82 V 10.3 L 22.4,21.36 h -0.11 a 8.5,8.5 0 0 0 -7.77,8.42 0.66,0.66 0 0 0 0.65,0.65 H 27 v 15 a 11.26,11.26 0 0 0 0.73,4.06 l 1.65,4.39 a 0.66,0.66 0 0 0 0.61,0.43 0.65,0.65 0 0 0 0.61,-0.43 z M 23,8.85 v 0 A 0.92,0.92 0 0 1 22.36,8.58 0.88,0.88 0 0 1 22.09,7.94 0.91,0.91 0 0 1 23,7 h 14 a 0.94,0.94 0 0 1 0.91,0.91 0.87,0.87 0 0 1 -0.27,0.64 0.93,0.93 0 0 1 -0.63,0.27 z m 2.14,1.3 h 9.76 v 0.11 l 1.38,11.07 H 23.72 v -0.14 z m 2.59,19 -0.05,0.06 -0.05,-0.06 H 15.86 V 29 A 7.14,7.14 0 0 1 23,22.64 H 37 A 7.14,7.14 0 0 1 44.13,29 v 0.14 H 27.71 Z M 29,49 a 10.07,10.07 0 0 1 -0.66,-3.6 v -15 h 3.38 v 15 a 10.15,10.15 0 0 1 -0.63,3.53 L 31,49 30,51.76 Z"
       id="path10" />
  </g>
  <metadata
     id="metadata832">
    <rdf:RDF>
      <cc:Work
         rdf:about="">
        <dc:title>estilos iconos paraeducaand_adultos</dc:title>
      </cc:Work>
    </rdf:RDF>
  </metadata>
</svg>
